<svg xmlns="http://www.w3.org/2000/svg" viewBox="0 0 100 100" preserveAspectRatio="xMidYMid" width="196" height="196" style="shape-rendering: auto; display: block; background: none;" xmlns:xlink="http://www.w3.org/1999/xlink"><g><g transform="rotate(0 50 50)">
  <rect fill="#0e1f34" height="8" width="6" ry="2.16" rx="2.16" y="31" x="47">
    <animate repeatCount="indefinite" begin="-1.555299539170507s" dur="1.6129032258064517s" keyTimes="0;1" values="1;0" attributeName="opacity"></animate>
  </rect>
</g><g transform="rotate(12.857142857142858 50 50)">
  <rect fill="#0e1f34" height="8" width="6" ry="2.16" rx="2.16" y="31" x="47">
    <animate repeatCount="indefinite" begin="-1.4976958525345623s" dur="1.6129032258064517s" keyTimes="0;1" values="1;0" attributeName="opacity"></animate>
  </rect>
</g><g transform="rotate(25.714285714285715 50 50)">
  <rect fill="#0e1f34" height="8" width="6" ry="2.16" rx="2.16" y="31" x="47">
    <animate repeatCount="indefinite" begin="-1.4400921658986177s" dur="1.6129032258064517s" keyTimes="0;1" values="1;0" attributeName="opacity"></animate>
  </rect>
</g><g transform="rotate(38.57142857142857 50 50)">
  <rect fill="#0e1f34" height="8" width="6" ry="2.16" rx="2.16" y="31" x="47">
    <animate repeatCount="indefinite" begin="-1.3824884792626728s" dur="1.6129032258064517s" keyTimes="0;1" values="1;0" attributeName="opacity"></animate>
  </rect>
</g><g transform="rotate(51.42857142857143 50 50)">
  <rect fill="#0e1f34" height="8" width="6" ry="2.16" rx="2.16" y="31" x="47">
    <animate repeatCount="indefinite" begin="-1.3248847926267282s" dur="1.6129032258064517s" keyTimes="0;1" values="1;0" attributeName="opacity"></animate>
  </rect>
</g><g transform="rotate(64.28571428571429 50 50)">
  <rect fill="#0e1f34" height="8" width="6" ry="2.16" rx="2.16" y="31" x="47">
    <animate repeatCount="indefinite" begin="-1.2672811059907834s" dur="1.6129032258064517s" keyTimes="0;1" values="1;0" attributeName="opacity"></animate>
  </rect>
</g><g transform="rotate(77.14285714285714 50 50)">
  <rect fill="#0e1f34" height="8" width="6" ry="2.16" rx="2.16" y="31" x="47">
    <animate repeatCount="indefinite" begin="-1.2096774193548387s" dur="1.6129032258064517s" keyTimes="0;1" values="1;0" attributeName="opacity"></animate>
  </rect>
</g><g transform="rotate(90 50 50)">
  <rect fill="#0e1f34" height="8" width="6" ry="2.16" rx="2.16" y="31" x="47">
    <animate repeatCount="indefinite" begin="-1.1520737327188941s" dur="1.6129032258064517s" keyTimes="0;1" values="1;0" attributeName="opacity"></animate>
  </rect>
</g><g transform="rotate(102.85714285714286 50 50)">
  <rect fill="#0e1f34" height="8" width="6" ry="2.16" rx="2.16" y="31" x="47">
    <animate repeatCount="indefinite" begin="-1.0944700460829493s" dur="1.6129032258064517s" keyTimes="0;1" values="1;0" attributeName="opacity"></animate>
  </rect>
</g><g transform="rotate(115.71428571428571 50 50)">
  <rect fill="#0e1f34" height="8" width="6" ry="2.16" rx="2.16" y="31" x="47">
    <animate repeatCount="indefinite" begin="-1.0368663594470047s" dur="1.6129032258064517s" keyTimes="0;1" values="1;0" attributeName="opacity"></animate>
  </rect>
</g><g transform="rotate(128.57142857142858 50 50)">
  <rect fill="#0e1f34" height="8" width="6" ry="2.16" rx="2.16" y="31" x="47">
    <animate repeatCount="indefinite" begin="-0.9792626728110599s" dur="1.6129032258064517s" keyTimes="0;1" values="1;0" attributeName="opacity"></animate>
  </rect>
</g><g transform="rotate(141.42857142857142 50 50)">
  <rect fill="#0e1f34" height="8" width="6" ry="2.16" rx="2.16" y="31" x="47">
    <animate repeatCount="indefinite" begin="-0.9216589861751152s" dur="1.6129032258064517s" keyTimes="0;1" values="1;0" attributeName="opacity"></animate>
  </rect>
</g><g transform="rotate(154.28571428571428 50 50)">
  <rect fill="#0e1f34" height="8" width="6" ry="2.16" rx="2.16" y="31" x="47">
    <animate repeatCount="indefinite" begin="-0.8640552995391705s" dur="1.6129032258064517s" keyTimes="0;1" values="1;0" attributeName="opacity"></animate>
  </rect>
</g><g transform="rotate(167.14285714285714 50 50)">
  <rect fill="#0e1f34" height="8" width="6" ry="2.16" rx="2.16" y="31" x="47">
    <animate repeatCount="indefinite" begin="-0.8064516129032259s" dur="1.6129032258064517s" keyTimes="0;1" values="1;0" attributeName="opacity"></animate>
  </rect>
</g><g transform="rotate(180 50 50)">
  <rect fill="#0e1f34" height="8" width="6" ry="2.16" rx="2.16" y="31" x="47">
    <animate repeatCount="indefinite" begin="-0.7488479262672811s" dur="1.6129032258064517s" keyTimes="0;1" values="1;0" attributeName="opacity"></animate>
  </rect>
</g><g transform="rotate(192.85714285714286 50 50)">
  <rect fill="#0e1f34" height="8" width="6" ry="2.16" rx="2.16" y="31" x="47">
    <animate repeatCount="indefinite" begin="-0.6912442396313364s" dur="1.6129032258064517s" keyTimes="0;1" values="1;0" attributeName="opacity"></animate>
  </rect>
</g><g transform="rotate(205.71428571428572 50 50)">
  <rect fill="#0e1f34" height="8" width="6" ry="2.16" rx="2.16" y="31" x="47">
    <animate repeatCount="indefinite" begin="-0.6336405529953917s" dur="1.6129032258064517s" keyTimes="0;1" values="1;0" attributeName="opacity"></animate>
  </rect>
</g><g transform="rotate(218.57142857142858 50 50)">
  <rect fill="#0e1f34" height="8" width="6" ry="2.16" rx="2.16" y="31" x="47">
    <animate repeatCount="indefinite" begin="-0.5760368663594471s" dur="1.6129032258064517s" keyTimes="0;1" values="1;0" attributeName="opacity"></animate>
  </rect>
</g><g transform="rotate(231.42857142857142 50 50)">
  <rect fill="#0e1f34" height="8" width="6" ry="2.16" rx="2.16" y="31" x="47">
    <animate repeatCount="indefinite" begin="-0.5184331797235023s" dur="1.6129032258064517s" keyTimes="0;1" values="1;0" attributeName="opacity"></animate>
  </rect>
</g><g transform="rotate(244.28571428571428 50 50)">
  <rect fill="#0e1f34" height="8" width="6" ry="2.16" rx="2.16" y="31" x="47">
    <animate repeatCount="indefinite" begin="-0.4608294930875576s" dur="1.6129032258064517s" keyTimes="0;1" values="1;0" attributeName="opacity"></animate>
  </rect>
</g><g transform="rotate(257.14285714285717 50 50)">
  <rect fill="#0e1f34" height="8" width="6" ry="2.16" rx="2.16" y="31" x="47">
    <animate repeatCount="indefinite" begin="-0.40322580645161293s" dur="1.6129032258064517s" keyTimes="0;1" values="1;0" attributeName="opacity"></animate>
  </rect>
</g><g transform="rotate(270 50 50)">
  <rect fill="#0e1f34" height="8" width="6" ry="2.16" rx="2.16" y="31" x="47">
    <animate repeatCount="indefinite" begin="-0.3456221198156682s" dur="1.6129032258064517s" keyTimes="0;1" values="1;0" attributeName="opacity"></animate>
  </rect>
</g><g transform="rotate(282.85714285714283 50 50)">
  <rect fill="#0e1f34" height="8" width="6" ry="2.16" rx="2.16" y="31" x="47">
    <animate repeatCount="indefinite" begin="-0.28801843317972353s" dur="1.6129032258064517s" keyTimes="0;1" values="1;0" attributeName="opacity"></animate>
  </rect>
</g><g transform="rotate(295.7142857142857 50 50)">
  <rect fill="#0e1f34" height="8" width="6" ry="2.16" rx="2.16" y="31" x="47">
    <animate repeatCount="indefinite" begin="-0.2304147465437788s" dur="1.6129032258064517s" keyTimes="0;1" values="1;0" attributeName="opacity"></animate>
  </rect>
</g><g transform="rotate(308.57142857142856 50 50)">
  <rect fill="#0e1f34" height="8" width="6" ry="2.16" rx="2.16" y="31" x="47">
    <animate repeatCount="indefinite" begin="-0.1728110599078341s" dur="1.6129032258064517s" keyTimes="0;1" values="1;0" attributeName="opacity"></animate>
  </rect>
</g><g transform="rotate(321.42857142857144 50 50)">
  <rect fill="#0e1f34" height="8" width="6" ry="2.16" rx="2.16" y="31" x="47">
    <animate repeatCount="indefinite" begin="-0.1152073732718894s" dur="1.6129032258064517s" keyTimes="0;1" values="1;0" attributeName="opacity"></animate>
  </rect>
</g><g transform="rotate(334.2857142857143 50 50)">
  <rect fill="#0e1f34" height="8" width="6" ry="2.16" rx="2.16" y="31" x="47">
    <animate repeatCount="indefinite" begin="-0.0576036866359447s" dur="1.6129032258064517s" keyTimes="0;1" values="1;0" attributeName="opacity"></animate>
  </rect>
</g><g transform="rotate(347.14285714285717 50 50)">
  <rect fill="#0e1f34" height="8" width="6" ry="2.16" rx="2.16" y="31" x="47">
    <animate repeatCount="indefinite" begin="0s" dur="1.6129032258064517s" keyTimes="0;1" values="1;0" attributeName="opacity"></animate>
  </rect>
</g><g></g></g><!-- [ldio] generated by https://loading.io --></svg>